<svg xmlns="http://www.w3.org/2000/svg" viewBox="0 0 1000 1000" role="img" aria-label="MuW">
  <title>MuW mark</title>
  <rect width="1000" height="1000" rx="220" fill="#FFD02B"/>
  <path d="M509.52 359.58L512.24 354.14L520.4 354.14L530.6 348.02L530.6 314.02L535.36 309.26L530.6 305.86L546.24 282.06L552.36 279.34L567.32 281.38L572.08 286.82L576.16 284.78L578.2 277.98L593.16 271.86L687.68 198.42L708.76 224.94L710.12 221.54L714.2 223.58L723.72 240.58L750.24 231.74L769.96 218.14L772 220.18L808.72 209.98L811.44 211.34L822.32 259.62L819.6 262.34L829.8 319.46L840 420.1L819.6 419.42L819.6 425.54L829.8 425.54L827.08 441.86L800.56 431.66L796.48 435.06L803.28 488.1L786.96 490.82L784.24 494.22L794.44 543.18L737.32 556.1L744.12 585.34L711.48 593.5L712.84 617.98L718.96 643.82L708.76 596.22L639.4 613.22L633.28 617.98L641.44 663.54L599.96 673.74L597.24 706.38L577.52 705.02L572.08 764.86L525.84 764.86L527.2 798.18L523.12 801.58L520.4 786.62L503.4 782.54L502.04 774.38L505.44 765.54L449 744.46L450.36 739.7L446.28 738.34L449 721.34L395.96 713.18L386.44 683.26L388.48 654.02L384.4 653.34L385.76 632.94L361.96 629.54L359.24 631.58L346.32 613.22L317.08 609.14L321.16 574.46L247.72 524.82L197.4 481.98L160 441.86L190.6 355.5L206.92 318.78L214.4 314.02L236.84 256.9L255.2 254.18L285.12 267.78L289.88 237.18L308.92 236.5L326.6 229.02L334.08 237.18L347 228.34L355.84 233.1L415.68 224.26L418.4 230.38L440.84 232.42L461.24 241.94L455.8 252.82L491.16 275.26L483.68 286.14L497.28 297.02L499.32 343.26L495.92 351.42L510.88 354.14L509.52 359.58" fill="none" stroke="#0A0A0B" stroke-width="62.5" stroke-linecap="round" stroke-linejoin="round"/>
  <circle cx="509.5" cy="359.6" r="83.3333" fill="#F5F5F4" stroke="#0A0A0B" stroke-width="41.6667"/>
</svg>
